# Blender v2.90.0 OBJ File: 'Trunk_03.blend'
# www.blender.org
mtllib Trunk_03.mtl
o Tree_Green_03_Circle
v 0.000000 0.000000 -0.396578
v -0.377168 0.000000 -0.122549
v -0.233103 0.000000 0.320838
v 0.233103 0.000000 0.320838
v 0.377168 0.000000 -0.122549
v 0.000000 5.876877 -0.174267
v -0.165738 5.876877 -0.053851
v -0.102431 5.876877 0.140985
v 0.102431 5.876877 0.140985
v 0.165738 5.876877 -0.053851
v 0.000000 4.271707 -0.253839
v 0.241415 4.271707 -0.078441
v 0.149203 4.271707 0.205360
v -0.149203 4.271707 0.205360
v -0.241415 4.271707 -0.078441
v 0.295326 2.859993 -0.095957
v -0.182522 2.859993 0.251219
v 0.000000 2.859993 -0.310524
v 0.182522 2.859993 0.251219
v -0.295326 2.859993 -0.095957
v 0.000000 3.137577 -0.302172
v 0.177612 3.137577 0.244462
v -0.287383 3.137577 -0.093376
v 0.287383 3.137577 -0.093376
v -0.177612 3.137577 0.244462
v 2.354080 4.144775 0.014259
v 2.356993 4.042981 0.013313
v 2.315626 4.042981 0.140627
v 2.313826 4.144775 0.138149
v 1.190553 3.286536 0.098018
v 1.121770 3.286536 0.309710
v 1.185709 3.455794 0.099592
v 1.118776 3.455794 0.305590
v -1.706844 4.186642 -0.917424
v -1.667191 4.186642 -0.946233
v -1.592741 4.223913 -0.945112
v -1.631327 4.223913 -0.917077
v -1.030060 3.526926 -0.646547
v -1.034860 3.359201 -0.648106
v -0.856415 3.359201 -0.777755
v -0.856415 3.526926 -0.772708
v 0.000000 6.858163 -0.089893
v -0.085493 6.858163 -0.027779
v -0.052838 6.858163 0.072725
v 0.052838 6.858163 0.072725
v 0.085493 6.858163 -0.027779
v 0.000000 4.635231 -0.235818
v 0.138610 4.635231 0.190781
v -0.224276 4.635231 -0.072872
v 0.224276 4.635231 -0.072872
v -0.138610 4.635231 0.190781
v -0.308250 4.958499 1.073488
v -0.317279 4.648622 1.085916
v -0.062911 4.648622 1.085916
v -0.071940 4.958499 1.073488
v 0.255430 5.618135 2.075614
v 0.256098 5.499295 2.081468
v 0.328005 5.499295 2.015546
v 0.322232 5.618135 2.014373
v 0.947705 5.506915 -2.142143
v 0.954404 5.361131 -2.139432
v 0.925514 5.361131 -2.255562
v 0.920865 5.506915 -2.250028
v 0.171333 4.538771 -1.555187
v 0.328348 4.538771 -1.411253
v 0.315743 4.807302 -1.408691
v 0.169874 4.807302 -1.542407
v 0.548423 4.949951 -1.905374
v 0.545370 5.157108 -1.896217
v 0.641376 4.949951 -1.775343
v 0.631723 5.157108 -1.775417
v 0.736969 5.155541 -2.080468
v 0.733118 5.332011 -2.073123
v 0.797890 5.155541 -1.957387
v 0.789714 5.332011 -1.958780
v 1.846793 5.150520 -1.899805
v 1.855693 5.094790 -1.835338
v 1.845043 5.198357 -1.898394
v 1.853945 5.150945 -1.833390
v 1.156713 5.153432 -1.640634
v 1.228163 5.252298 -1.749562
v 1.232624 5.152546 -1.749393
v 1.161869 5.036334 -1.641271
v 0.210878 5.150770 -2.817557
v 0.213291 5.098892 -2.817414
v 0.267901 5.150377 -2.783211
v 0.265874 5.194571 -2.783664
v 0.277918 5.154178 -2.160453
v 0.279914 5.018798 -2.166437
v 0.403131 5.153154 -2.280864
v 0.400614 5.268480 -2.276063
v 0.122047 5.283132 1.536534
v 0.129474 5.067271 1.543422
v -0.035098 5.067271 1.575865
v -0.030842 5.283132 1.566673
v 0.222140 5.450634 1.775453
v 0.110500 5.283283 1.828666
v 0.228740 5.283283 1.779484
v 0.112294 5.450634 1.821144
v 1.241191 5.275338 2.059986
v 1.300809 5.199961 1.993422
v 1.301872 5.275285 1.990051
v 1.241476 5.333734 2.057302
v 0.675399 5.147355 1.495256
v 0.649485 5.278488 1.624106
v 0.647845 5.380079 1.620491
v 0.674232 5.278396 1.490190
v 0.033281 4.857946 1.314669
v -0.169546 5.120815 1.320081
v 0.025054 5.120815 1.305011
v -0.176189 4.857946 1.330891
v -1.073467 5.898694 0.793883
v -1.074623 5.873713 0.794328
v -1.074887 5.911779 0.816646
v -1.075810 5.890588 0.817087
v -0.681650 5.428308 1.243240
v -0.630904 5.515254 1.380722
v -0.687285 5.262320 1.248857
v -0.635187 5.374446 1.385706
vt 0.000000 0.000000
vt 0.000000 0.000000
vt 0.000000 0.000000
vt 0.000000 0.000000
vt 0.000000 0.000000
vt 0.000000 0.000000
vt 0.000000 0.000000
vt 0.000000 0.000000
vt 0.000000 0.000000
vt 0.000000 0.000000
vt 0.000000 0.000000
vt 0.000000 0.000000
vt 0.000000 0.000000
vt 0.000000 0.000000
vt 0.000000 0.000000
vt 0.000000 0.000000
vt 0.000000 0.000000
vt 0.000000 0.000000
vt 0.000000 0.000000
vt 0.000000 0.000000
vt 0.000000 0.000000
vt 0.000000 0.000000
vt 0.000000 0.000000
vt 0.000000 0.000000
vt 0.000000 0.000000
vt 0.000000 0.000000
vt 0.000000 0.000000
vt 0.000000 0.000000
vt 0.000000 0.000000
vt 0.000000 0.000000
vt 0.000000 0.000000
vt 0.000000 0.000000
vt 0.000000 0.000000
vt 0.000000 0.000000
vt 0.000000 0.000000
vt 0.000000 0.000000
vt 0.000000 0.000000
vt 0.000000 0.000000
vt 0.000000 0.000000
vt 0.000000 0.000000
vt 0.000000 0.000000
vt 0.000000 0.000000
vt 0.000000 0.000000
vt 0.000000 0.000000
vt 0.000000 0.000000
vt 0.000000 0.000000
vt 0.000000 0.000000
vt 0.000000 0.000000
vt 0.000000 0.000000
vt 0.000000 0.000000
vt 0.000000 0.000000
vt 0.000000 0.000000
vt 0.000000 0.000000
vt 0.000000 0.000000
vt 0.000000 0.000000
vt 0.000000 0.000000
vt 0.000000 0.000000
vt 0.000000 0.000000
vt 0.000000 0.000000
vt 0.000000 0.000000
vt 0.000000 0.000000
vt 0.000000 0.000000
vt 0.000000 0.000000
vt 0.000000 0.000000
vt 0.000000 0.000000
vt 0.000000 0.000000
vt 0.000000 0.000000
vt 0.000000 0.000000
vt 0.000000 0.000000
vt 0.000000 0.000000
vt 0.000000 0.000000
vt 0.000000 0.000000
vt 0.000000 0.000000
vt 0.000000 0.000000
vt 0.000000 0.000000
vt 0.000000 0.000000
vt 0.000000 0.000000
vt 0.000000 0.000000
vt 0.000000 0.000000
vt 0.000000 0.000000
vt 0.000000 0.000000
vt 0.000000 0.000000
vt 0.000000 0.000000
vt 0.000000 0.000000
vt 0.000000 0.000000
vt 0.000000 0.000000
vt 0.000000 0.000000
vt 0.000000 0.000000
vt 0.000000 0.000000
vt 0.000000 0.000000
vt 0.000000 0.000000
vt 0.000000 0.000000
vt 0.000000 0.000000
vt 0.000000 0.000000
vt 0.000000 0.000000
vt 0.000000 0.000000
vt 0.000000 0.000000
vt 0.000000 0.000000
vt 0.000000 0.000000
vt 0.000000 0.000000
vt 0.000000 0.000000
vt 0.000000 0.000000
vt 0.000000 0.000000
vt 0.000000 0.000000
vt 0.000000 0.000000
vt 0.000000 0.000000
vt 0.000000 0.000000
vt 0.000000 0.000000
vt 0.000000 0.000000
vt 0.000000 0.000000
vt 0.000000 0.000000
vt 0.000000 0.000000
vt 0.000000 0.000000
vt 0.000000 0.000000
vt 0.000000 0.000000
vt 0.000000 0.000000
vt 0.000000 0.000000
vt 0.000000 0.000000
vt 0.000000 0.000000
vn 0.0000 -1.0000 0.0000
vn 0.5864 0.0694 -0.8071
vn 0.5873 0.0401 -0.8084
vn 0.0000 0.0401 0.9992
vn -0.5873 0.0401 -0.8084
vn 0.9503 0.0401 0.3088
vn -0.9503 0.0401 0.3088
vn -0.9505 0.0345 0.3088
vn 0.9505 0.0345 0.3088
vn -0.5874 0.0345 -0.8085
vn 0.0000 0.0345 0.9994
vn 0.5874 0.0345 -0.8085
vn 0.5876 0.0243 -0.8088
vn 0.0000 0.0243 0.9997
vn -0.5876 0.0243 -0.8088
vn 0.9508 0.0243 0.3089
vn -0.9508 0.0243 0.3089
vn -0.3699 0.0019 0.9291
vn 0.5445 -0.8199 0.1769
vn -0.0770 0.0071 -0.9970
vn 0.1238 0.0263 0.9920
vn -0.5099 0.8441 -0.1657
vn -0.3127 0.9444 -0.1016
vn -0.0725 0.0230 0.9971
vn 0.2049 0.0150 -0.9787
vn 0.4032 -0.9057 0.1310
vn -0.3766 0.7678 -0.5183
vn 0.0895 -0.1491 -0.9848
vn 0.4543 0.6346 0.6253
vn -0.4723 -0.5952 -0.6501
vn -0.2897 -0.8701 -0.3987
vn 0.2369 0.9152 0.3261
vn 0.4905 0.0262 -0.8711
vn -0.5941 0.0095 0.8043
vn 0.0000 1.0000 0.0000
vn 0.0000 0.0694 0.9976
vn -0.5864 0.0694 -0.8071
vn 0.9488 0.0694 0.3083
vn -0.9488 0.0694 0.3083
vn 0.9750 0.0372 0.2190
vn 0.6104 -0.7322 -0.3021
vn 0.9127 0.0262 -0.4078
vn -0.9804 0.0207 -0.1960
vn 0.0000 0.9390 -0.3439
vn 0.0000 -0.9193 0.3935
vn 0.6752 0.0401 0.7365
vn -0.8767 0.0187 0.4808
vn -0.2085 0.8397 -0.5014
vn 0.4084 -0.7967 0.4455
vn 0.9696 0.0401 -0.2412
vn 0.7345 0.0463 0.6770
vn -0.6892 0.0151 -0.7244
vn -0.5957 0.7894 0.1482
vn -0.1065 0.9875 0.1162
vn -0.9916 0.0064 -0.1292
vn 0.9962 0.0461 0.0741
vn 0.1353 -0.9732 -0.1862
vn -0.4594 0.8253 0.3284
vn -0.6977 0.0303 -0.7158
vn 0.7405 0.0347 0.6712
vn 0.4397 -0.7594 -0.4796
vn -0.5183 0.8158 0.2565
vn -0.9949 -0.0191 0.0995
vn 0.2050 0.8039 0.5583
vn 0.5380 -0.7501 -0.3846
vn 0.9934 0.0395 -0.1072
vn -0.2378 0.0200 -0.9711
vn 0.2665 0.0065 0.9638
vn -0.1634 -0.6169 -0.7699
vn 0.2794 -0.7469 -0.6034
vn -0.2487 -0.0162 0.9684
vn 0.4316 0.0178 -0.9019
vn -0.1491 0.7789 0.6092
vn 0.5159 0.0216 -0.8564
vn 0.6494 -0.7410 -0.1707
vn 0.9649 0.0319 -0.2608
vn -0.6448 0.7618 0.0618
vn -0.3991 0.8276 0.3947
vn 0.5139 0.0469 -0.8566
vn 0.3328 -0.7695 -0.5452
vn -0.7020 -0.0418 0.7110
vn 0.0490 -0.7731 0.6324
vn -0.1065 0.8346 -0.5405
vn -0.8813 0.0374 0.4711
vn 0.9171 0.0141 -0.3985
vn 0.1192 -0.7877 0.6044
vn -0.8797 0.0308 0.4746
vn -0.3860 -0.7631 0.5184
vn 0.7552 0.0187 0.6553
vn 0.4088 0.7578 -0.5086
vn -0.5916 0.0191 0.8060
vn 0.6241 -0.0246 -0.7809
vn -0.0828 -0.0346 -0.9960
vn 0.3471 0.0363 0.9371
vn -0.0453 0.7831 -0.6203
vn 0.2159 -0.7639 0.6082
vn 0.9182 0.0109 -0.3960
vn 0.8393 0.2627 -0.4759
vn -0.0435 0.8265 -0.5612
vn 0.0000 -0.7603 0.6496
vn -0.9954 0.0416 -0.0860
vn 0.7286 -0.0459 -0.6834
vn -0.7690 0.0460 0.6376
vn -0.8908 -0.3861 0.2398
vn -0.5033 -0.4921 0.7103
vn 0.1590 0.0366 0.9866
vn -0.4303 -0.0159 -0.9025
vn 0.4792 0.6510 -0.5886
vn -0.1317 0.2579 0.9572
vn 0.2319 0.0293 -0.9723
vn 0.6542 -0.7386 -0.1628
vn 0.9112 0.0402 -0.4099
vn -0.8773 0.0309 0.4789
vn -0.3430 0.8616 -0.3742
vn 0.2476 -0.7644 0.5953
vn 0.7353 0.0394 0.6766
vn -0.6885 0.0056 -0.7252
vn -0.5532 0.7868 0.2738
vn -0.0881 0.9887 0.1213
vn -0.9917 0.0007 -0.1288
vn 0.9962 0.0458 0.0742
vn 0.1629 -0.9705 -0.1777
vn -0.3959 0.8104 0.4319
vn -0.6961 0.0215 -0.7176
vn 0.7419 0.0284 0.6699
vn 0.5104 -0.7787 -0.3648
vn -0.4855 0.8024 0.3471
vn -0.9938 -0.0459 0.1016
vn 0.2036 0.6548 0.7279
vn 0.5738 -0.7681 -0.2840
vn 0.9936 0.0346 -0.1072
vn -0.2355 -0.0122 -0.9718
vn 0.2712 -0.0249 0.9622
vn -0.1576 -0.7577 -0.6333
vn 0.2860 -0.7402 -0.6085
vn -0.2477 -0.0112 0.9688
vn 0.4325 0.0129 -0.9015
vn -0.1514 0.7771 0.6108
vn 0.5160 0.0149 -0.8565
vn 0.7277 -0.6678 -0.1566
vn 0.9647 0.0416 -0.2599
vn -0.6486 0.7586 0.0617
vn 0.3327 -0.7695 -0.5452
vn 0.1262 -0.7577 0.6403
vn -0.0413 0.8451 -0.5330
vn -0.8808 0.0417 0.4717
vn 0.9174 0.0189 -0.3976
vn -0.1000 0.8560 -0.5072
vn -0.8795 0.0375 0.4744
vn -0.4234 -0.6761 0.6030
vn 0.7551 0.0264 0.6551
vn 0.3628 0.8397 -0.4040
vn -0.5925 0.0399 0.8046
vn 0.6223 -0.0438 -0.7816
vn -0.0839 -0.0392 -0.9957
vn 0.3466 0.0389 0.9372
vn -0.0644 0.8296 -0.5546
vn 0.1625 -0.6750 0.7197
vn 0.9186 0.0142 -0.3948
vn 0.8439 0.4862 -0.2269
vn 0.0000 0.8353 -0.5498
vn 0.0513 -0.7474 0.6624
vn -0.9954 0.0445 -0.0849
vn 0.7276 -0.0479 -0.6844
vn -0.7687 0.0467 0.6379
vn -0.8530 -0.1947 0.4843
vn -0.5337 -0.5431 0.6482
vn 0.1556 0.0302 0.9874
vn -0.4352 -0.0234 -0.9000
vn 0.4591 0.6012 -0.6540
usemtl Tree_Green_03
s off
f 1/1/1 4/2/1 3/3/1
f 10/4/2 42/5/2 46/6/2
f 47/7/3 10/4/3 50/8/3
f 48/9/4 8/10/4 51/11/4
f 49/12/5 6/13/5 47/7/5
f 50/8/6 9/14/6 48/9/6
f 51/11/7 7/15/7 49/12/7
f 23/16/8 14/17/8 15/18/8
f 24/19/9 13/20/9 22/21/9
f 23/16/10 11/22/10 21/23/10
f 22/21/11 14/17/11 25/24/11
f 21/23/12 12/25/12 24/19/12
f 1/1/13 16/26/13 5/27/13
f 4/2/14 17/28/14 3/3/14
f 2/29/15 18/30/15 1/1/15
f 4/2/16 16/26/16 19/31/16
f 3/3/17 20/32/17 2/29/17
f 18/30/13 24/19/13 16/26/13
f 19/31/14 25/24/14 17/28/14
f 38/33/18 34/34/18 39/35/18
f 30/36/19 28/37/19 31/38/19
f 17/28/17 23/16/17 20/32/17
f 28/37/16 26/39/16 29/40/16
f 32/41/20 27/42/20 30/36/20
f 33/43/21 28/37/21 29/40/21
f 32/41/22 29/40/22 26/39/22
f 24/19/23 33/43/23 32/41/23
f 22/21/24 31/38/24 33/43/24
f 24/19/25 30/36/25 16/26/25
f 16/26/26 31/38/26 19/31/26
f 35/44/27 37/45/27 36/46/27
f 41/47/28 35/44/28 36/46/28
f 38/33/29 36/46/29 37/45/29
f 39/35/30 35/44/30 40/48/30
f 20/32/31 40/48/31 18/30/31
f 23/16/32 41/47/32 38/33/32
f 21/23/33 40/48/33 41/47/33
f 23/16/34 39/35/34 20/32/34
f 44/49/35 45/50/35 46/6/35
f 9/14/36 44/49/36 8/10/36
f 7/15/37 42/5/37 6/13/37
f 10/4/38 45/50/38 9/14/38
f 8/10/39 43/51/39 7/15/39
f 14/17/7 49/12/7 15/18/7
f 12/25/6 48/9/6 13/20/6
f 15/18/5 47/7/5 11/22/5
f 48/9/40 54/52/40 13/20/40
f 72/53/41 61/54/41 74/55/41
f 96/56/42 58/57/42 98/58/42
f 51/11/43 53/59/43 52/60/43
f 51/11/44 55/61/44 48/9/44
f 14/17/45 54/52/45 53/59/45
f 58/57/46 56/62/46 57/63/46
f 99/64/47 57/63/47 56/62/47
f 99/64/48 59/65/48 96/56/48
f 97/66/49 58/57/49 57/63/49
f 61/54/50 63/67/50 60/68/50
f 75/69/51 61/54/51 60/68/51
f 73/70/52 62/71/52 72/53/52
f 73/70/53 60/68/53 63/67/53
f 47/7/54 66/72/54 67/73/54
f 47/7/55 64/74/55 11/22/55
f 50/8/56 65/75/56 66/72/56
f 11/22/57 65/75/57 12/25/57
f 67/73/58 71/76/58 69/77/58
f 67/73/59 68/78/59 64/74/59
f 66/72/60 70/79/60 71/76/60
f 64/74/61 70/79/61 65/75/61
f 69/77/62 75/69/62 73/70/62
f 88/80/63 85/81/63 89/82/63
f 81/83/64 79/84/64 78/85/64
f 68/78/65 74/55/65 70/79/65
f 79/84/66 76/86/66 78/85/66
f 82/87/67 78/85/67 76/86/67
f 83/88/68 79/84/68 80/89/68
f 82/87/69 77/90/69 83/88/69
f 74/55/70 83/88/70 70/79/70
f 71/76/71 83/88/71 80/89/71
f 74/55/72 81/83/72 82/87/72
f 75/69/73 80/89/73 81/83/73
f 84/91/74 86/92/74 85/81/74
f 89/82/75 86/92/75 90/93/75
f 90/93/76 87/94/76 91/95/76
f 88/80/77 87/94/77 84/91/77
f 69/77/78 91/95/78 88/80/78
f 72/53/79 91/95/79 73/70/79
f 68/78/80 90/93/80 72/53/80
f 69/77/81 89/82/81 68/78/81
f 108/96/82 94/97/82 111/98/82
f 110/99/83 95/100/83 92/101/83
f 109/102/84 94/97/84 95/100/84
f 110/99/85 93/103/85 108/96/85
f 93/103/86 97/66/86 94/97/86
f 92/101/48 99/64/48 96/56/48
f 95/100/87 97/66/87 99/64/87
f 105/104/88 101/105/88 100/106/88
f 102/107/89 100/106/89 101/105/89
f 106/108/90 102/107/90 107/109/90
f 105/104/91 103/110/91 106/108/91
f 107/109/92 101/105/92 104/111/92
f 92/101/93 104/111/93 93/103/93
f 98/58/94 106/108/94 96/56/94
f 92/101/95 106/108/95 107/109/95
f 93/103/96 105/104/96 98/58/96
f 55/61/97 108/96/97 54/52/97
f 116/112/98 114/113/98 117/114/98
f 55/61/99 109/102/99 110/99/99
f 54/52/100 111/98/100 53/59/100
f 112/115/101 115/116/101 114/113/101
f 116/112/102 113/117/102 112/115/102
f 117/114/103 115/116/103 119/118/103
f 118/119/104 115/116/104 113/117/104
f 111/98/105 118/119/105 53/59/105
f 109/102/106 119/118/106 111/98/106
f 52/60/107 118/119/107 116/112/107
f 109/102/108 116/112/108 117/114/108
f 3/3/1 2/29/1 1/1/1
f 1/1/1 5/27/1 4/2/1
f 10/4/2 6/13/2 42/5/2
f 47/7/3 6/13/3 10/4/3
f 48/9/4 9/14/4 8/10/4
f 49/12/5 7/15/5 6/13/5
f 50/8/6 10/4/6 9/14/6
f 51/11/7 8/10/7 7/15/7
f 23/16/8 25/24/8 14/17/8
f 24/19/9 12/25/9 13/20/9
f 23/16/10 15/18/10 11/22/10
f 22/21/11 13/20/11 14/17/11
f 21/23/12 11/22/12 12/25/12
f 1/1/13 18/30/13 16/26/13
f 4/2/14 19/31/14 17/28/14
f 2/29/15 20/32/15 18/30/15
f 4/2/16 5/27/16 16/26/16
f 3/3/17 17/28/17 20/32/17
f 18/30/13 21/23/13 24/19/13
f 19/31/14 22/21/14 25/24/14
f 38/33/109 37/45/109 34/34/109
f 30/36/19 27/42/19 28/37/19
f 17/28/17 25/24/17 23/16/17
f 28/37/16 27/42/16 26/39/16
f 32/41/20 26/39/20 27/42/20
f 33/43/21 31/38/21 28/37/21
f 32/41/22 33/43/22 29/40/22
f 24/19/23 22/21/23 33/43/23
f 22/21/24 19/31/24 31/38/24
f 24/19/25 32/41/25 30/36/25
f 16/26/26 30/36/26 31/38/26
f 35/44/27 34/34/27 37/45/27
f 41/47/110 40/48/110 35/44/110
f 38/33/29 41/47/29 36/46/29
f 39/35/30 34/34/30 35/44/30
f 20/32/31 39/35/31 40/48/31
f 23/16/32 21/23/32 41/47/32
f 21/23/33 18/30/33 40/48/33
f 23/16/34 38/33/34 39/35/34
f 42/5/35 43/51/35 46/6/35
f 43/51/35 44/49/35 46/6/35
f 9/14/36 45/50/36 44/49/36
f 7/15/37 43/51/37 42/5/37
f 10/4/38 46/6/38 45/50/38
f 8/10/39 44/49/39 43/51/39
f 14/17/7 51/11/7 49/12/7
f 12/25/6 50/8/6 48/9/6
f 15/18/5 49/12/5 47/7/5
f 48/9/40 55/61/40 54/52/40
f 72/53/111 62/71/111 61/54/111
f 96/56/112 59/65/112 58/57/112
f 51/11/43 14/17/43 53/59/43
f 51/11/44 52/60/44 55/61/44
f 14/17/45 13/20/45 54/52/45
f 58/57/46 59/65/46 56/62/46
f 99/64/113 97/66/113 57/63/113
f 99/64/114 56/62/114 59/65/114
f 97/66/115 98/58/115 58/57/115
f 61/54/50 62/71/50 63/67/50
f 75/69/116 74/55/116 61/54/116
f 73/70/117 63/67/117 62/71/117
f 73/70/118 75/69/118 60/68/118
f 47/7/119 50/8/119 66/72/119
f 47/7/120 67/73/120 64/74/120
f 50/8/121 12/25/121 65/75/121
f 11/22/122 64/74/122 65/75/122
f 67/73/123 66/72/123 71/76/123
f 67/73/124 69/77/124 68/78/124
f 66/72/125 65/75/125 70/79/125
f 64/74/126 68/78/126 70/79/126
f 69/77/127 71/76/127 75/69/127
f 88/80/128 84/91/128 85/81/128
f 81/83/129 80/89/129 79/84/129
f 68/78/130 72/53/130 74/55/130
f 79/84/131 77/90/131 76/86/131
f 82/87/132 81/83/132 78/85/132
f 83/88/133 77/90/133 79/84/133
f 82/87/134 76/86/134 77/90/134
f 74/55/135 82/87/135 83/88/135
f 71/76/136 70/79/136 83/88/136
f 74/55/137 75/69/137 81/83/137
f 75/69/138 71/76/138 80/89/138
f 84/91/139 87/94/139 86/92/139
f 89/82/140 85/81/140 86/92/140
f 90/93/141 86/92/141 87/94/141
f 88/80/142 91/95/142 87/94/142
f 69/77/78 73/70/78 91/95/78
f 72/53/79 90/93/79 91/95/79
f 68/78/143 89/82/143 90/93/143
f 69/77/81 88/80/81 89/82/81
f 108/96/144 93/103/144 94/97/144
f 110/99/145 109/102/145 95/100/145
f 109/102/146 111/98/146 94/97/146
f 110/99/147 92/101/147 93/103/147
f 93/103/115 98/58/115 97/66/115
f 92/101/148 95/100/148 99/64/148
f 95/100/149 94/97/149 97/66/149
f 105/104/150 104/111/150 101/105/150
f 102/107/151 103/110/151 100/106/151
f 106/108/152 103/110/152 102/107/152
f 105/104/153 100/106/153 103/110/153
f 107/109/154 102/107/154 101/105/154
f 92/101/155 107/109/155 104/111/155
f 98/58/156 105/104/156 106/108/156
f 92/101/157 96/56/157 106/108/157
f 93/103/158 104/111/158 105/104/158
f 55/61/159 110/99/159 108/96/159
f 116/112/160 112/115/160 114/113/160
f 55/61/161 52/60/161 109/102/161
f 54/52/162 108/96/162 111/98/162
f 112/115/163 113/117/163 115/116/163
f 116/112/164 118/119/164 113/117/164
f 117/114/165 114/113/165 115/116/165
f 118/119/166 119/118/166 115/116/166
f 111/98/167 119/118/167 118/119/167
f 109/102/168 117/114/168 119/118/168
f 52/60/169 53/59/169 118/119/169
f 109/102/170 52/60/170 116/112/170
